<svg width="21" height="9" viewBox="0 0 21 9" fill="none" xmlns="http://www.w3.org/2000/svg">
<path fill-rule="evenodd" clip-rule="evenodd" d="M6.35981 8.88327C6.1729 9.03891 5.86984 9.03891 5.68293 8.88327L0.640187 4.68421L0.584003 4.62805C0.453292 4.46998 0.475413 4.25124 0.648335 4.11395L5.69108 0.110107L5.75867 0.0653171C5.94823 -0.0385618 6.20562 -0.0180854 6.36777 0.123517L6.42156 0.179796C6.54631 0.337642 6.52172 0.551974 6.35166 0.686994L2.17891 4L20.5238 4L20.6094 4.00806C20.8315 4.05039 21 4.25454 21 4.5C21 4.77614 20.7868 5 20.5238 5L2.37229 5L6.35981 8.31963L6.41519 8.37483C6.54442 8.53016 6.52596 8.74492 6.35981 8.88327Z" fill="white"/>
</svg>
