<svg width="21" height="9" viewBox="0 0 21 9" fill="none" xmlns="http://www.w3.org/2000/svg">
<path fill-rule="evenodd" clip-rule="evenodd" d="M14.6402 0.116733C14.8271 -0.0389109 15.1302 -0.0389109 15.3171 0.116733L20.3598 4.31579L20.416 4.37195C20.5467 4.53002 20.5246 4.74876 20.3517 4.88605L15.3089 8.88989L15.2413 8.93468C15.0518 9.03856 14.7944 9.01808 14.6322 8.87648L14.5784 8.8202C14.4537 8.66236 14.4783 8.44802 14.6483 8.31301L18.8211 5H0.476191L0.390594 4.99194C0.168451 4.94961 3.0677e-09 4.74546 3.0677e-09 4.5C3.0677e-09 4.22386 0.213198 4 0.476191 4H18.6277L14.6402 0.680368L14.5848 0.625171C14.4556 0.469841 14.474 0.255083 14.6402 0.116733Z" fill="black"/>
</svg>
