<svg width="21" height="9" viewBox="0 0 21 9" fill="none" xmlns="http://www.w3.org/2000/svg">
<path fill-rule="evenodd" clip-rule="evenodd" d="M5.85981 8.88327C5.6729 9.03891 5.36985 9.03891 5.18293 8.88327L0.140188 4.68421L0.0840036 4.62805C-0.0467067 4.46998 -0.0245857 4.25124 0.148336 4.11395L5.19108 0.110109L5.25867 0.065319C5.44823 -0.0385599 5.70562 -0.0180835 5.86777 0.123519L5.92156 0.179798C6.04631 0.337644 6.02172 0.551976 5.85167 0.686996L1.67892 4L20.0238 4L20.1094 4.00806C20.3315 4.0504 20.5 4.25454 20.5 4.5C20.5 4.77615 20.2868 5 20.0238 5L1.87229 5L5.85981 8.31963L5.91519 8.37483C6.04442 8.53016 6.02596 8.74492 5.85981 8.88327Z" fill="black"/>
</svg>
