<svg width="17" height="18" viewBox="0 0 17 18" fill="none" xmlns="http://www.w3.org/2000/svg">
<path fill-rule="evenodd" clip-rule="evenodd" d="M2.98421 2.66663L2.71575 1.51331C2.50676 0.623727 1.7579 -5.25233e-05 0.899008 3.31708e-09H0V1.33331H0.899008C1.19287 1.32417 1.45289 1.53519 1.52332 1.83997L3.74587 11.4932L3.97686 12.4865C4.18752 13.3833 4.94647 14.0091 5.81234 13.9998H14.3592V12.6665H5.81234C5.51848 12.6756 5.25846 12.4646 5.18803 12.1598L5.11311 11.8265L14.3592 9.49986C15.0427 9.33017 15.5801 8.76664 15.7514 8.03988L17 2.66663H2.98421ZM14.5652 7.71989C14.5074 7.96334 14.3264 8.15146 14.097 8.20655L4.82593 10.5332L3.29636 3.99994H15.433L14.5652 7.71989ZM3 16C3 14.8954 3.89543 14 5 14C6.10457 14 7 14.8954 7 16C7 17.1046 6.10457 18 5 18C3.89543 18 3 17.1046 3 16ZM4.33333 16C4.33333 16.3682 4.63181 16.6667 5 16.6667C5.36819 16.6667 5.66667 16.3682 5.66667 16C5.66667 15.6318 5.36819 15.3333 5 15.3333C4.63181 15.3333 4.33333 15.6318 4.33333 16ZM10.1523 15.2346C10.4619 14.4873 11.1911 14 12 14C13.1046 14 14 14.8954 14 16C14 16.8089 13.5127 17.5381 12.7654 17.8477C12.018 18.1573 11.1578 17.9862 10.5858 17.4142C10.0138 16.8422 9.84274 15.982 10.1523 15.2346ZM11.3334 16C11.3334 16.3682 11.6318 16.6666 12 16.6666C12.3682 16.6666 12.6667 16.3682 12.6667 16C12.6667 15.6318 12.3682 15.3333 12 15.3333C11.6318 15.3333 11.3334 15.6318 11.3334 16Z" fill="white"/>
</svg>
