<svg width="21" height="20" viewBox="0 0 21 20" fill="none" xmlns="http://www.w3.org/2000/svg">
<path fill-rule="evenodd" clip-rule="evenodd" d="M10.3 15C10.7418 15 11.1 14.6418 11.1 14.2V10.7273H14.5727C14.9744 10.7273 15.3 10.4017 15.3 10C15.3 9.59834 14.9744 9.27273 14.5727 9.27273H11.1V5.8C11.1 5.35817 10.7418 5 10.3 5C9.85816 5 9.49999 5.35817 9.49999 5.8V9.27273H6.02726C5.6256 9.27273 5.29999 9.59834 5.29999 10C5.29999 10.4017 5.6256 10.7273 6.02726 10.7273H9.49999V14.2C9.49999 14.6418 9.85816 15 10.3 15Z" fill="#595CFF"/>
</svg>
